<svg xmlns="http://www.w3.org/2000/svg" xmlns:xlink="http://www.w3.org/1999/xlink" width="40" height="40" viewBox="0 0 40 40">
  <defs>
    <style>
      .a {
        fill: none;
      }

      .b,
      .j,
      .k {
        fill: #008f7e;
      }

      .c {
        clip-path: url(#a);
      }

      .d {
        clip-path: url(#b);
      }

      .e {
        clip-path: url(#c);
      }

      .f {
        clip-path: url(#d);
      }

      .g {
        clip-path: url(#e);
      }

      .h {
        clip-path: url(#f);
      }

      .i {
        fill: #fff;
      }
    </style>
    <clipPath id="a">
      <path class="a" d="M22.365-12.635H20.674a8.71,8.71,0,0,0-8.039-8.039v-1.692A.635.635,0,0,0,12-23a.635.635,0,0,0-.635.635v1.692a8.71,8.71,0,0,0-8.039,8.039H1.635A.635.635,0,0,0,1-12a.635.635,0,0,0,.635.635H3.326a8.71,8.71,0,0,0,8.039,8.039v1.692A.635.635,0,0,0,12-1a.635.635,0,0,0,.635-.635V-3.326a8.71,8.71,0,0,0,8.039-8.039h1.692A.635.635,0,0,0,23-12a.635.635,0,0,0-.635-.635ZM12.635-4.6V-6.241A.635.635,0,0,0,12-6.875a.635.635,0,0,0-.635.635V-4.6A7.44,7.44,0,0,1,4.6-11.365H6.241A.635.635,0,0,0,6.875-12a.635.635,0,0,0-.635-.635H4.6A7.44,7.44,0,0,1,11.365-19.4v1.641a.635.635,0,0,0,.635.635.635.635,0,0,0,.635-.635V-19.4A7.44,7.44,0,0,1,19.4-12.635H17.759a.635.635,0,0,0-.635.635.635.635,0,0,0,.635.635H19.4A7.44,7.44,0,0,1,12.635-4.6ZM12-10a2,2,0,0,0,2-2,2,2,0,0,0-2-2,2,2,0,0,0-2,2A2,2,0,0,0,12-10Z" transform="translate(-1 23)" />
    </clipPath>
    <clipPath id="b">
      <path class="a" d="M0,0H24V-24H0Z" transform="translate(0 24)" />
    </clipPath>
    <clipPath id="c">
      <rect class="a" width="24" height="24" />
    </clipPath>
    <clipPath id="d">
      <path class="a" d="M0-24H24V0H0Z" transform="translate(0 24)" />
    </clipPath>
    <clipPath id="e">
      <path class="a" d="M1-1H23V-23H1Z" transform="translate(-1 23)" />
    </clipPath>
    <clipPath id="f">
      <rect class="a" width="34" height="34" />
    </clipPath>
  </defs>
  <g transform="translate(-16 -65)">
    <path class="b" d="M-20.854,9.146l9-9a.5.5,0,0,1,.707,0,.5.5,0,0,1,0,.707L-19.293,9H-.5a.5.5,0,0,1,.5.5.5.5,0,0,1-.5.5H-19.293l8.146,8.146a.5.5,0,0,1,0,.707A.5.5,0,0,1-11.5,19a.5.5,0,0,1-.354-.147l-9-9a.5.5,0,0,1-.108-.163.5.5,0,0,1,0-.382A.489.489,0,0,1-20.854,9.146Z" transform="translate(37 75)" />
    </g>
</svg>